<?xml version="1.0" encoding="UTF-8"?>
<svg id="Camada_1" data-name="Camada 1" xmlns="http://www.w3.org/2000/svg" viewBox="0 0 1540.4 540.5">
  <defs>
    <style>
      .cls-1 {
        fill: #917147;
      }
    </style>
  </defs>
  <path class="cls-1" d="M318.26,346.76c6.11-76.6-57.81-64.12-121.95-64.57l-42.22,159.47c-3.48,13.13-5.6,26.66-6.54,39.02-3.26,42.98,42.25,35.17,45.89,42.07.92,1.74-4.24,9.07-7.57,9.05l-106.11-.76-77.06.81c-2.59.03-3.64-7.45-1.65-8.94,7.89-5.92,35.25-2.27,51.42-30.65,9.76-17.13,16.3-34.49,21.32-53.35L163.61,101.9c4.59-17.22,5.3-33.72,1.32-47.88-4.29-15.31-27.77-12.22-32.44-20.56-.95-1.7,3.99-6.59,6.68-6.59l343.06.05-17.07,113.24c-.47,3.1-8.91,5.76-9.74,4.14-1.02-1.98-3.28-6.59-3.35-9.05-2.44-81.38-71.08-97.31-147.11-94.66l-44.18,1.54-59.87,224.13,52.61-.18c88.26-.3,94.19-61.18,108.52-72.19,1.94-1.49,8.74,1.22,7.8,4.71l-40.58,151.16c-.79,2.95-6.35,5.28-7.38,4.41-1.37-1.15-3.8-5.08-3.62-7.41Z"/>
  <path class="cls-1" d="M533.91,540.49c-66.24.57-115.49-32.42-129.5-89.35-10.85-44.08-4.01-90.94,18.36-139.56,46.3-100.63,146.54-158.01,243.48-139.91,56.15,10.48,91.33,51.64,96.46,107.89,5.23,57.45-16.46,119.86-59.32,173.72-43.49,54.66-105.98,86.66-169.47,87.2ZM654.06,411.72c18.42-44.4,30.13-88.04,31.95-131.73,1.82-43.68-5.04-93.32-54.23-97.3-54.35-4.4-91.64,46.57-115.15,95.22-29.1,60.21-42.63,122.31-39.14,180.86,2.33,39.03,21.38,70.2,64.37,66.67,55.78-4.57,92.56-66.37,112.21-113.73Z"/>
  <path class="cls-1" d="M1481.81,451.59c-39.8,50.54-93.76,81.41-150.17,87.16-61.2,6.23-114.24-11.83-139.58-60.67-32.07-61.81-13.36-153.09,42.61-222.44,33.91-42.01,78.5-70.51,126.6-81.69,95.23-22.14,172.02,19.16,178.61,108.23,4.11,55.51-16.42,116.52-58.07,169.41ZM1357.65,512c23.18-14.49,39.92-36.16,52.59-58.55,33.91-59.89,50.3-123.31,52.49-184.04.97-26.77-2.57-51.68-18.23-70.12-24.37-28.69-77.68-19.8-109.85,16.1-63.57,70.93-99.51,211.09-71.34,279.04,13.21,31.85,55.64,41.75,94.33,17.57Z"/>
  <path class="cls-1" d="M748.53,531.6c-1.81.01-4.38-4.92-3.22-6.45,7.19-9.39,25.27-2.59,39.43-21.05,9.25-12.06,15.91-26.65,19.82-41.29l100.97-378.85c8.92-33.45-22.4-41.31-29.08-46.03-1.31-.92,3.41-7.72,7.26-8.66L1003.43,0l-123.05,458.79c-22.57,84.16,35,46.67,20.1,71.41-1.22,2.03-6.7.4-9.69.42l-142.26.98Z"/>
  <path class="cls-1" d="M938.9,529.25c-10.06-6.91,23.04-10.61,28.56-15.17,14.72-12.17,24.26-30.46,28.91-47.67l52.56-194.57c20.13-74.52-34.04-57.17-23.28-67.83l4.46-4.42,120.56-29.72-72.57,271.65c-7.64,28.58-21.78,75.92,12.83,78,2.37.14,5.65,4.14,5.07,6.37-.89,3.42-6.12,5.67-10.53,5.64l-139.63-.81c-3.08-.02-5.59-.58-6.93-1.49Z"/>
  <path class="cls-1" d="M1179.18,46.36c10.89,16.38,5.62,39.4-8.9,55.4-16.61,18.3-37.14,24.35-58.16,20.64-21.25-3.75-30.2-22.66-24.71-44.58,5.22-20.82,24.74-40.09,48.5-45.33,16.85-3.71,34.81,1.16,43.26,13.87Z"/>
</svg>